<svg width="20" height="20" viewBox="0 0 20 20" fill="none" xmlns="http://www.w3.org/2000/svg">
<path d="M18.1444 9.07836V4.62453C18.1444 3.64262 17.3455 2.84375 16.3636 2.84375H3.63641C2.65449 2.84375 1.85563 3.64262 1.85563 4.62453V9.07836C0.787031 9.37418 0 10.3546 0 11.5161V14.9002C0 15.228 0.265859 15.4939 0.59375 15.4939H1.85563V16.562C1.85563 16.8899 2.12148 17.1558 2.44937 17.1558C2.77727 17.1558 3.04312 16.8899 3.04312 16.562V15.4939H16.9569V16.562C16.9569 16.8899 17.2227 17.1558 17.5506 17.1558C17.8785 17.1558 18.1444 16.8899 18.1444 16.562V15.4939H19.4062C19.7341 15.4939 20 15.228 20 14.9002V11.5161C20 10.3546 19.2129 9.37418 18.1444 9.07836ZM3.04312 4.62453C3.04312 4.29742 3.3093 4.03125 3.63641 4.03125H16.3636C16.6907 4.03125 16.9569 4.29742 16.9569 4.62453V8.98648H15.5657V7.79465C15.5657 6.75828 14.7226 5.91516 13.6862 5.91516H11.2858C10.7887 5.91516 10.3365 6.10941 10 6.42562C9.66359 6.10945 9.21133 5.91516 8.7143 5.91516H6.31387C5.2775 5.91516 4.43437 6.75832 4.43437 7.79465V8.98648H3.04312V4.62453ZM14.3782 7.79465V8.98648H10.5938V7.79465C10.5938 7.41305 10.9042 7.10266 11.2857 7.10266H13.6862C14.0678 7.10266 14.3782 7.41309 14.3782 7.79465ZM9.40621 7.79465V8.98648H5.62176V7.79465C5.62176 7.41305 5.93223 7.10266 6.31375 7.10266H8.71418C9.09578 7.10266 9.40621 7.41309 9.40621 7.79465ZM18.8125 14.3064H1.1875V11.5161C1.1875 10.7761 1.78953 10.174 2.52957 10.174H17.4704C18.2104 10.174 18.8125 10.776 18.8125 11.5161V14.3064Z" fill="#919FB3"/>
</svg>
