<svg width="18" height="16" viewBox="0 0 18 16" fill="none" xmlns="http://www.w3.org/2000/svg">
<path d="M1.63981 0.5H16.7423C16.9648 0.5 17.1783 0.587797 17.3356 0.744078C17.4929 0.900358 17.5813 1.11232 17.5813 1.33333V14.6667C17.5813 14.8877 17.4929 15.0996 17.3356 15.2559C17.1783 15.4122 16.9648 15.5 16.7423 15.5H1.63981C1.41729 15.5 1.20388 15.4122 1.04653 15.2559C0.889179 15.0996 0.800781 14.8877 0.800781 14.6667V1.33333C0.800781 1.11232 0.889179 0.900358 1.04653 0.744078C1.20388 0.587797 1.41729 0.5 1.63981 0.5ZM15.9033 4.03167L9.25147 9.94833L2.47884 4.01333V13.8333H15.9033V4.03167ZM2.90758 2.16667L9.24224 7.71833L15.4855 2.16667H2.90758Z" fill="#3181F6"/>
</svg>
