<svg width="20" height="20" viewBox="0 0 20 20" fill="none" xmlns="http://www.w3.org/2000/svg">
<path d="M15.8332 18.3332C16.0542 18.3332 16.2661 18.2454 16.4224 18.0891C16.5787 17.9328 16.6665 17.7209 16.6665 17.4998V2.49984C16.6665 2.27882 16.5787 2.06686 16.4224 1.91058C16.2661 1.7543 16.0542 1.6665 15.8332 1.6665H4.16651C3.94549 1.6665 3.73353 1.7543 3.57725 1.91058C3.42097 2.06686 3.33317 2.27882 3.33317 2.49984V4.99984H4.99984V3.33317H14.9998V16.6665H4.99984V14.9998H3.33317V17.4998C3.33317 17.7209 3.42097 17.9328 3.57725 18.0891C3.73353 18.2454 3.94549 18.3332 4.16651 18.3332H15.8332ZM4.99984 13.3332V10.8332H10.8332V9.1665H4.99984V6.6665L0.833172 9.99984L4.99984 13.3332Z" fill="#F95D5D"/>
</svg>
