<svg width="20" height="20" viewBox="0 0 20 20" fill="none" xmlns="http://www.w3.org/2000/svg">
<path d="M10.0007 3.77415C11.9582 2.01665 14.9832 2.07498 16.869 3.96415C18.754 5.85415 18.819 8.86415 17.0657 10.8275L9.99901 17.9042L2.93401 10.8275C1.18068 8.86415 1.24651 5.84915 3.13068 3.96415C5.01818 2.07748 8.03734 2.01415 10.0007 3.77415V3.77415ZM15.689 5.14165C14.439 3.88998 12.4223 3.83915 11.114 5.01415L10.0015 6.01248L8.88818 5.01498C7.57568 3.83832 5.56318 3.88998 4.30984 5.14332C3.06818 6.38498 3.00568 8.37248 4.14984 9.68582L9.99984 15.545L15.8498 9.68665C16.9948 8.37248 16.9323 6.38748 15.689 5.14165V5.14165Z" fill="#919FB3"/>
</svg>
