<svg width="16" height="19" viewBox="0 0 16 19" fill="none" xmlns="http://www.w3.org/2000/svg">
<path d="M8 16.4164L12.125 12.2914C12.9408 11.4756 13.4963 10.4362 13.7213 9.30467C13.9463 8.17313 13.8308 7.00027 13.3892 5.9344C12.9477 4.86853 12.2 3.95753 11.2408 3.31658C10.2815 2.67563 9.1537 2.33353 8 2.33353C6.8463 2.33353 5.71851 2.67563 4.75924 3.31658C3.79997 3.95753 3.05229 4.86853 2.61076 5.9344C2.16923 7.00027 2.05368 8.17313 2.27871 9.30467C2.50374 10.4362 3.05926 11.4756 3.875 12.2914L8 16.4164ZM8 18.7731L2.69667 13.4698C1.64779 12.4209 0.933489 11.0845 0.644107 9.62965C0.354725 8.17479 0.503256 6.6668 1.07092 5.29636C1.63858 3.92592 2.59987 2.75458 3.83324 1.93048C5.0666 1.10637 6.51665 0.666504 8 0.666504C9.48336 0.666504 10.9334 1.10637 12.1668 1.93048C13.4001 2.75458 14.3614 3.92592 14.9291 5.29636C15.4968 6.6668 15.6453 8.17479 15.3559 9.62965C15.0665 11.0845 14.3522 12.4209 13.3033 13.4698L8 18.7731ZM8 9.83311C8.44203 9.83311 8.86595 9.65751 9.17851 9.34495C9.49107 9.03239 9.66667 8.60847 9.66667 8.16644C9.66667 7.72441 9.49107 7.30049 9.17851 6.98793C8.86595 6.67537 8.44203 6.49977 8 6.49977C7.55798 6.49977 7.13405 6.67537 6.82149 6.98793C6.50893 7.30049 6.33334 7.72441 6.33334 8.16644C6.33334 8.60847 6.50893 9.03239 6.82149 9.34495C7.13405 9.65751 7.55798 9.83311 8 9.83311ZM8 11.4998C7.11595 11.4998 6.2681 11.1486 5.64298 10.5235C5.01786 9.89834 4.66667 9.05049 4.66667 8.16644C4.66667 7.28238 5.01786 6.43454 5.64298 5.80942C6.2681 5.18429 7.11595 4.83311 8 4.83311C8.88406 4.83311 9.7319 5.18429 10.357 5.80942C10.9821 6.43454 11.3333 7.28238 11.3333 8.16644C11.3333 9.05049 10.9821 9.89834 10.357 10.5235C9.7319 11.1486 8.88406 11.4998 8 11.4998Z" fill="#3181F6"/>
</svg>
