<svg width="24" height="24" viewBox="0 0 24 24" fill="none" xmlns="http://www.w3.org/2000/svg">
<path d="M12.001 4.52898C14.35 2.41998 17.98 2.48998 20.243 4.75698C22.505 7.02498 22.583 10.637 20.479 12.993L11.999 21.485L3.52101 12.993C1.41701 10.637 1.49601 7.01898 3.75701 4.75698C6.02201 2.49298 9.64501 2.41698 12.001 4.52898ZM7.807 7.53898C6.307 6.03698 14.907 4.60698 13.337 6.01698L11.5 10.5L10.666 6.01798C9.09101 4.60598 14.841 5.496 13.337 7C11.847 8.49 15.5 11.5 13.142 15.902L11.999 12.451L8 12.993C9.374 11.416 9.299 9.03398 7.807 7.53898Z" fill="#3181F6"/>
</svg>
