<svg width="90" height="33" viewBox="0 0 90 33" fill="none" xmlns="http://www.w3.org/2000/svg">
<g clip-path="url(#clip0_652:2110)">
<path fill-rule="evenodd" clip-rule="evenodd" d="M49.8113 7.30769V11.2564C49.8113 13.2308 49.5283 15.4872 49.5283 15.4872V16.0513H52.3585V15.4872C52.0755 15.4872 52.0755 10.6923 52.0755 9.84615V4.48718C53.7736 4.48718 54.6226 4.76923 55.1887 5.05128C55.7547 5.33333 56.0377 5.61539 56.0377 6.17949C56.0377 7.8718 54.0566 8.71795 53.2075 9.28205H52.9245V9.5641C53.7736 10.4103 58.0189 15.7692 58.3019 16.0513L58.5849 16.3333L60.283 14.9231L62.2641 16.8974L64.2453 14.9231L62.2641 12.6667L60.283 14.641V14.359C59.717 14.0769 56.8868 10.6923 56.0377 9.5641C57.4528 8.71795 58.5849 7.30769 58.5849 5.89744C58.5849 3.92308 56.8868 2.79487 54.0566 2.51282H49.5283V2.79487C49.5283 3.07692 49.8113 7.02564 49.8113 7.30769ZM40.7547 16.3333C43.0189 16.3333 44.434 15.4872 45.8491 14.0769C47.2641 12.3846 47.5472 10.1282 47.5472 6.46154V2.23077H45V6.17949C45 9 45 11.2564 44.1509 12.6667C43.5849 13.5128 42.7358 14.0769 41.0377 14.0769C39.6226 14.0769 38.7736 13.7949 37.9245 12.3846C37.3585 11.2564 37.0755 10.1282 37.0755 7.02564V2.51282H34.8113V6.46154C34.8113 10.9744 35.0943 12.3846 35.9434 13.7949C37.6415 16.0513 39.6226 16.3333 40.7547 16.3333ZM82.0755 16.3333C84.3396 16.3333 85.7547 15.4872 86.8868 14.0769C88.5849 12.3846 88.8679 10.1282 88.8679 6.46154V2.23077H86.3208V6.17949C86.3208 9 86.3208 11.2564 85.4717 12.6667C84.9057 13.5128 84.0566 14.0769 82.3585 14.0769C80.9434 14.0769 80.0943 13.7949 79.2453 12.3846C78.6792 11.2564 78.3962 10.1282 78.3962 7.02564V2.51282H76.1321V2.79487C76.1321 3.07692 75.8491 4.48718 75.8491 5.33333V6.46154C75.8491 10.9744 76.4151 12.3846 77.2641 13.7949C78.6792 16.0513 80.9434 16.3333 82.0755 16.3333ZM65.6604 7.30769V11.2564C65.6604 13.2308 65.6604 15.4872 65.3774 15.4872V16.0513H68.2075V15.4872C67.9245 15.4872 67.9245 10.6923 67.9245 9.84615V4.48718C69.6226 4.48718 70.7547 4.76923 71.0377 5.05128C71.6038 5.33333 71.8868 5.61539 71.8868 6.17949C71.8868 7.8718 69.9057 8.71795 69.0566 9.28205H68.7736V9.5641C69.6226 10.4103 73.8679 15.7692 74.1509 16.0513L74.434 16.3333L76.4151 14.641L76.1321 14.359C75.566 14.0769 72.7358 10.6923 71.8868 9.5641C73.3019 8.71795 74.434 7.30769 74.434 5.89744C74.434 3.92308 72.7358 2.79487 70.1887 2.51282H65.3774V2.79487C65.3774 3.07692 65.6604 7.02564 65.6604 7.30769ZM8.49057 14.641C8.77358 14.0769 13.3019 4.76923 13.8679 3.92308C14.1509 4.48718 18.6792 13.2308 19.2453 14.0769L8.49057 14.641ZM80.0943 19.4359C79.2453 19.7179 79.5283 20.2821 80.3774 20.2821C87.4528 17.7436 90.283 24.7949 84.6226 27.3333C80.3774 29.3077 72.7358 25.641 64.2453 21.6923C47.8302 14.359 35.3774 18.0256 28.0189 23.1026C27.1698 21.4103 25.4717 18.8718 24.0566 16.0513H33.6792V13.7949L33.3962 14.0769H25.7547C27.4528 12.1026 33.3962 3.92308 34.2453 3.07692V2.51282H33.9623C33.6792 2.51282 24.3396 2.23077 23.2075 1.94872H22.9245V4.20513H30.283C29.1509 5.89744 24.9057 11.5385 22.9245 14.0769C19.5283 8.15385 15.8491 1.10256 13.8679 -2C13.0189 -0.589743 1.98113 20.8462 0 24.2308L3.11321 26.2051C3.67925 25.0769 6.79245 17.7436 7.35849 17.1795L20.3774 16.6154C20.6604 17.1795 23.7736 23.3846 25.1887 25.641L25.4717 26.2051C25.4717 26.2051 25.7547 25.9231 26.0377 25.9231C32.2641 22.8205 44.717 16.3333 62.8302 24.7949C71.6038 29.0256 78.6792 32.9744 85.4717 29.8718C88.5849 28.1795 90 25.9231 90 23.6667C90 19.4359 85.7547 16.0513 80.0943 19.4359Z" fill="white"/>
</g>
<defs>
<clipPath id="clip0_652:2110">
<rect width="90" height="33" fill="white"/>
</clipPath>
</defs>
</svg>
