<svg width="21" height="20" viewBox="0 0 21 20" fill="none" xmlns="http://www.w3.org/2000/svg">
<path d="M2.51676 2.5H17.6193C17.8418 2.5 18.0552 2.5878 18.2126 2.74408C18.3699 2.90036 18.4583 3.11232 18.4583 3.33333V16.6667C18.4583 16.8877 18.3699 17.0996 18.2126 17.2559C18.0552 17.4122 17.8418 17.5 17.6193 17.5H2.51676C2.29424 17.5 2.08083 17.4122 1.92348 17.2559C1.76613 17.0996 1.67773 16.8877 1.67773 16.6667V3.33333C1.67773 3.11232 1.76613 2.90036 1.92348 2.74408C2.08083 2.5878 2.29424 2.5 2.51676 2.5V2.5ZM16.7802 6.03167L10.1284 11.9483L3.35579 6.01333V15.8333H16.7802V6.03167ZM3.78453 4.16667L10.1192 9.71833L16.3624 4.16667H3.78453Z" fill="#3181F6"/>
</svg>
