<svg width="20" height="20" viewBox="0 0 20 20" fill="none" xmlns="http://www.w3.org/2000/svg">
<path fill-rule="evenodd" clip-rule="evenodd" d="M18.5 4.5C18.5 8 14.125 12 14.125 12C14.125 12 9.75 8 9.75 4.5C9.75 2.01472 11.7088 0 14.125 0C16.5412 0 18.5 2.01472 18.5 4.5ZM16.9091 4.5C16.9091 5.68044 16.1175 7.1859 15.0491 8.59017C14.7317 9.00722 14.4129 9.38596 14.125 9.70903C13.8371 9.38596 13.5183 9.00722 13.2009 8.59017C12.1325 7.1859 11.3409 5.68044 11.3409 4.5C11.3409 2.86429 12.6209 1.6 14.125 1.6C15.6291 1.6 16.9091 2.86429 16.9091 4.5Z" fill="#3181F6"/>
<path fill-rule="evenodd" clip-rule="evenodd" d="M10.5455 12.3035V17.8112L7.36364 16.2112V6.1888L8.15909 6.5888V4.8L6.56818 4L1 6.4V19.3928C0.999943 19.459 1.01623 19.5242 1.04742 19.5826C1.0786 19.6409 1.12369 19.6905 1.17865 19.727C1.23361 19.7635 1.29672 19.7857 1.3623 19.7916C1.42789 19.7975 1.49391 19.7869 1.55443 19.7608L6.56818 17.6L11.3409 20L16.9091 17.6V12.7243L15.3182 14.5163V16.5448L12.1364 17.916V14.0955L10.5455 12.3035ZM5.77273 16.2024V6.084L2.59091 7.4552V17.5736L5.77273 16.2024Z" fill="#3181F6"/>
<path d="M15.3182 4.4C15.3182 5.06274 14.784 5.6 14.125 5.6C13.466 5.6 12.9318 5.06274 12.9318 4.4C12.9318 3.73726 13.466 3.2 14.125 3.2C14.784 3.2 15.3182 3.73726 15.3182 4.4Z" fill="#3181F6"/>
</svg>
