<svg width="20" height="20" viewBox="0 0 20 20" fill="none" xmlns="http://www.w3.org/2000/svg">
<path d="M14.1667 1.6665V3.33317H16.6725C17.1292 3.33317 17.5 3.704 17.5 4.16067V17.5057C17.5 17.9623 17.1292 18.3332 16.6725 18.3332H3.3275C2.87083 18.3332 2.5 17.9623 2.5 17.5057V4.16067C2.5 3.704 2.87083 3.33317 3.3275 3.33317H5.83333V1.6665H14.1667ZM5.83333 4.99984H4.16667V16.6665H15.8333V4.99984H14.1667V6.6665H5.83333V4.99984ZM7.5 13.3332V14.9998H5.83333V13.3332H7.5ZM7.5 10.8332V12.4998H5.83333V10.8332H7.5ZM7.5 8.33317V9.99984H5.83333V8.33317H7.5ZM12.5 3.33317H7.5V4.99984H12.5V3.33317Z" fill="#3181F6"/>
</svg>
