<svg width="20" height="18" viewBox="0 0 20 18" fill="none" xmlns="http://www.w3.org/2000/svg">
<path d="M14.9016 15.0806C13.436 16.0103 11.7356 16.5026 9.99996 16.4998C5.50663 16.4998 1.7683 13.2665 0.984131 8.99981C1.34249 7.05874 2.31882 5.28556 3.76746 3.94481L1.15996 1.33981L2.33913 0.160645L18.8383 16.6606L17.6591 17.839L14.9008 15.0806H14.9016ZM4.9458 5.12481C3.8133 6.15447 3.02439 7.50713 2.6858 8.99981C2.94604 10.1385 3.46852 11.2008 4.21163 12.102C4.95475 13.0032 5.89799 13.7185 6.96626 14.1909C8.03453 14.6633 9.19834 14.8799 10.365 14.8232C11.5317 14.7666 12.6691 14.4384 13.6866 13.8648L11.9966 12.1748C11.2772 12.628 10.4251 12.8232 9.58016 12.7285C8.73519 12.6338 7.9475 12.2547 7.34627 11.6535C6.74505 11.0523 6.36599 10.2646 6.27127 9.41961C6.17654 8.57465 6.37178 7.72257 6.82496 7.00314L4.9458 5.12481ZM10.7616 10.9398L8.05996 8.23814C7.91168 8.61559 7.87679 9.02811 7.95955 9.4251C8.04232 9.82209 8.23914 10.1863 8.5259 10.473C8.81265 10.7598 9.17685 10.9566 9.57384 11.0394C9.97083 11.1222 10.3834 11.0873 10.7608 10.939L10.7616 10.9398ZM17.3391 12.8265L16.1466 11.6348C16.7037 10.8409 17.1003 9.9458 17.3141 8.99981C17.0877 8.00792 16.6618 7.07243 16.0626 6.25022C15.4633 5.42801 14.7031 4.73625 13.8282 4.21698C12.9533 3.69771 11.9819 3.36178 10.9731 3.22961C9.96428 3.09744 8.93913 3.17179 7.95996 3.44814L6.64496 2.13314C7.68413 1.72481 8.81663 1.49981 9.99996 1.49981C14.4933 1.49981 18.2316 4.73314 19.0158 8.99981C18.7605 10.3879 18.1865 11.6978 17.3391 12.8265ZM9.76913 5.25648C10.2996 5.2237 10.8309 5.30403 11.3279 5.49216C11.8249 5.68028 12.2763 5.9719 12.6521 6.34769C13.0279 6.72347 13.3195 7.17483 13.5076 7.67186C13.6957 8.16888 13.7761 8.70022 13.7433 9.23065L9.7683 5.25648H9.76913Z" fill="#919FB3"/>
</svg>
