<svg width="20" height="20" viewBox="0 0 20 20" fill="none" xmlns="http://www.w3.org/2000/svg">
<path d="M16.6667 2.5C17.1267 2.5 17.5 2.87333 17.5 3.33333V4.7975L15.8333 6.46417V4.16667H4.16667V10.9167L7.5 7.58333L11.1067 11.1908L9.9275 12.3683L7.5 9.94167L4.16667 13.2742V15.8333H12.9442L13.5342 15.8342L14.6417 14.7258L15.75 15.8333H15.8333V13.535L17.5 11.8683V16.6667C17.5 17.1267 17.1267 17.5 16.6667 17.5H3.33333C2.875 17.5 2.5 17.125 2.5 16.6667V3.33333C2.5 2.87333 2.87333 2.5 3.33333 2.5H16.6667ZM18.1483 6.50667L19.3267 7.685L12.845 14.1667L11.665 14.165L11.6667 12.9883L18.1483 6.50667ZM12.9167 5.83333C13.6067 5.83333 14.1667 6.39333 14.1667 7.08333C14.1667 7.77333 13.6067 8.33333 12.9167 8.33333C12.2267 8.33333 11.6667 7.77333 11.6667 7.08333C11.6667 6.39333 12.2267 5.83333 12.9167 5.83333Z" fill="#919FB3"/>
</svg>
