<svg width="20" height="20" viewBox="0 0 20 20" fill="none" xmlns="http://www.w3.org/2000/svg">
<path d="M16.5016 8.51961C16.8109 9.87876 16.6864 11.3007 16.1457 12.5854L15.1074 11.9862L15.2449 15.9146L18.7157 14.0696L17.5974 13.4246C19.3415 9.56792 17.9082 4.94291 14.1665 2.78291C12.9053 2.05401 11.475 1.66857 10.0184 1.66506C8.56169 1.66155 7.12956 2.04009 5.86487 2.76291L6.69154 4.21041C7.90169 3.51869 9.2982 3.22363 10.6847 3.36672C12.0713 3.5098 13.3781 4.08384 14.4215 5.00813C15.4649 5.93241 16.1923 7.16045 16.5016 8.51961Z" fill="#919FB3"/>
<path d="M3.85359 7.41481C3.31325 8.69928 3.18894 10.1208 3.49813 11.4796C3.80741 12.8387 4.53488 14.0668 5.57826 14.991C6.62165 15.9153 7.92847 16.4894 9.31501 16.6324C10.7015 16.7755 12.0981 16.4805 13.3082 15.7887L14.1349 17.2362C12.8702 17.9591 11.438 18.3376 9.98137 18.3341C8.52469 18.3306 7.0944 17.9452 5.8332 17.2162C2.09154 15.0562 0.658203 10.4312 2.40237 6.57458L1.2832 5.93042L4.75404 4.08541L4.89154 8.01375L3.85359 7.41481Z" fill="#919FB3"/>
<path fill-rule="evenodd" clip-rule="evenodd" d="M9.5665 11.6029V11.0429H10.9665C11.9198 11.0429 12.6632 10.8429 13.1965 10.4429C13.7365 10.0429 14.0065 9.45959 14.0065 8.69293C14.0065 7.91959 13.7365 7.33293 13.1965 6.93293C12.6632 6.53293 11.9198 6.33293 10.9665 6.33293H7.9365V11.6029H6.9665V12.4329H7.9365V13.3329H9.5665V12.4329H11.7265V11.6029H9.5665ZM11.9965 7.92293C12.2432 8.10293 12.3665 8.36293 12.3665 8.70293C12.3665 9.04959 12.2432 9.31626 11.9965 9.50293C11.7565 9.68293 11.4098 9.77293 10.9565 9.77293H9.5665V7.65293H10.9565C11.4098 7.65293 11.7565 7.74293 11.9965 7.92293Z" fill="#919FB3"/>
</svg>
