<svg width="20" height="20" viewBox="0 0 20 20" fill="none" xmlns="http://www.w3.org/2000/svg">
<path d="M8.13764 8.88249C8.66941 8.88249 9.10056 8.44385 9.10056 7.90278C9.10056 7.36171 8.66941 6.92308 8.13764 6.92308C7.60587 6.92308 7.17472 7.36171 7.17472 7.90278C7.17472 8.44385 7.60587 8.88249 8.13764 8.88249Z" fill="#919FB3"/>
<path d="M11.9009 7.35553L12.8825 8.35425L8.02068 13.3009L7.03907 12.3022L11.9009 7.35553Z" fill="#919FB3"/>
<path d="M11.9893 13.781C12.5211 13.781 12.9523 13.3424 12.9523 12.8013C12.9523 12.2602 12.5211 11.8216 11.9893 11.8216C11.4576 11.8216 11.0264 12.2602 11.0264 12.8013C11.0264 13.3424 11.4576 13.781 11.9893 13.781Z" fill="#919FB3"/>
<path fill-rule="evenodd" clip-rule="evenodd" d="M12.3797 2.67686L15.8782 1.90983L16.2297 5.47405L19.5109 6.90983L17.7003 10L19.5109 13.0902L16.2297 14.5259L15.8782 18.0902L12.3797 17.3231L10.0003 20L7.62088 17.3231L4.12246 18.0902L3.77088 14.5259L0.489746 13.0902L2.30031 10L0.489746 6.90983L3.77088 5.47405L4.12246 1.90983L7.62088 2.67686L10.0003 0L12.3797 2.67686ZM14.517 3.78327L14.7872 6.52212L17.3085 7.62542L15.9172 10L17.3085 12.3746L14.7872 13.4779L14.517 16.2167L11.8287 15.6273L10.0003 17.6843L8.17188 15.6273L5.48359 16.2167L5.21343 13.4779L2.6921 12.3746L4.08339 10L2.6921 7.62542L5.21343 6.52212L5.48359 3.78327L8.17188 4.37268L10.0003 2.31569L11.8287 4.37268L14.517 3.78327Z" fill="#919FB3"/>
</svg>
