<svg width="20" height="20" viewBox="0 0 20 20" fill="none" xmlns="http://www.w3.org/2000/svg">
<path d="M5.564 15.3077L2 18V3.76923C2 3.56522 2.08429 3.36956 2.23431 3.2253C2.38434 3.08104 2.58783 3 2.8 3H17.2C17.4122 3 17.6157 3.08104 17.7657 3.2253C17.9157 3.36956 18 3.56522 18 3.76923V14.5385C18 14.7425 17.9157 14.9381 17.7657 15.0824C17.6157 15.2266 17.4122 15.3077 17.2 15.3077H5.564ZM5.0104 13.7692H16.4V4.53846H3.6V14.8346L5.0104 13.7692ZM9.2 8.38462H10.8V9.92308H9.2V8.38462ZM6 8.38462H7.6V9.92308H6V8.38462ZM12.4 8.38462H14V9.92308H12.4V8.38462Z" fill="#919FB3"/>
</svg>
