<svg width="20" height="20" viewBox="0 0 20 20" fill="none" xmlns="http://www.w3.org/2000/svg">
<path d="M16.6667 1.6665C17.1267 1.6665 17.5 2.03984 17.5 2.49984V5.63067L15.8333 7.29734V3.33317H4.16667V16.6665H15.8333V14.3682L17.5 12.7015V17.4998C17.5 17.9598 17.1267 18.3332 16.6667 18.3332H3.33333C2.87333 18.3332 2.5 17.9598 2.5 17.4998V2.49984C2.5 2.03984 2.87333 1.6665 3.33333 1.6665H16.6667ZM18.1483 7.33984L19.3267 8.51817L12.845 14.9998L11.665 14.9982L11.6667 13.8215L18.1483 7.33984ZM10.8333 9.99984V11.6665H6.66667V9.99984H10.8333ZM13.3333 6.6665V8.33317H6.66667V6.6665H13.3333Z" fill="#3181F6"/>
</svg>
