<svg width="20" height="20" viewBox="0 0 20 20" fill="none" xmlns="http://www.w3.org/2000/svg">
<path d="M1.6665 15.0002H7.49984V16.6668H1.6665V15.0002ZM1.6665 9.16683H9.1665V10.8335H1.6665V9.16683ZM1.6665 3.3335H18.3332V5.00016H1.6665V3.3335ZM17.2282 10.8543L18.1915 10.5285L19.0248 11.9718L18.2615 12.6427C18.3576 13.0982 18.3576 13.5688 18.2615 14.0243L19.0248 14.6952L18.1915 16.1385L17.2282 15.8127C16.8865 16.121 16.4798 16.3585 16.0323 16.5043L15.8332 17.5002H14.1665L13.9665 16.5035C13.5242 16.359 13.1171 16.1233 12.7715 15.8118L11.8082 16.1385L10.9748 14.6952L11.7382 14.0243C11.6421 13.5688 11.6421 13.0982 11.7382 12.6427L10.9748 11.9718L11.8082 10.5285L12.7715 10.8543C13.1132 10.546 13.5198 10.3085 13.9673 10.1627L14.1665 9.16683H15.8332L16.0332 10.1635C16.4798 10.3085 16.8865 10.5468 17.2282 10.8552V10.8543ZM14.9998 15.0002C15.4419 15.0002 15.8658 14.8246 16.1783 14.512C16.4909 14.1994 16.6665 13.7755 16.6665 13.3335C16.6665 12.8915 16.4909 12.4675 16.1783 12.155C15.8658 11.8424 15.4419 11.6668 14.9998 11.6668C14.5578 11.6668 14.1339 11.8424 13.8213 12.155C13.5088 12.4675 13.3332 12.8915 13.3332 13.3335C13.3332 13.7755 13.5088 14.1994 13.8213 14.512C14.1339 14.8246 14.5578 15.0002 14.9998 15.0002V15.0002Z" fill="#919FB3"/>
</svg>
