<svg width="19" height="18" viewBox="0 0 19 18" fill="none" xmlns="http://www.w3.org/2000/svg">
<path d="M16.4974 10.5V13H18.9974V14.6667H16.4974V17.1667H14.8307V14.6667H12.3307V13H14.8307V10.5H16.4974ZM16.5041 0.5C16.9607 0.5 17.3307 0.870833 17.3307 1.3275V8.83333H15.6641V2.16667H2.33073V13.8325L10.6641 5.5L13.1641 8V10.3575L10.6641 7.8575L4.68656 13.8333H10.6641V15.5H1.49073C1.27141 15.4998 1.06114 15.4125 0.906137 15.2573C0.751131 15.1022 0.664062 14.8918 0.664063 14.6725V1.3275C0.665588 1.10865 0.753146 0.899181 0.907823 0.744348C1.0625 0.589515 1.27188 0.501746 1.49073 0.5H16.5041ZM5.66406 3.83333C6.10609 3.83333 6.53001 4.00893 6.84258 4.32149C7.15514 4.63405 7.33073 5.05797 7.33073 5.5C7.33073 5.94203 7.15514 6.36595 6.84258 6.67851C6.53001 6.99107 6.10609 7.16667 5.66406 7.16667C5.22204 7.16667 4.79811 6.99107 4.48555 6.67851C4.17299 6.36595 3.9974 5.94203 3.9974 5.5C3.9974 5.05797 4.17299 4.63405 4.48555 4.32149C4.79811 4.00893 5.22204 3.83333 5.66406 3.83333Z" fill="#3181F6"/>
</svg>
