<svg width="32" height="32" viewBox="0 0 32 32" fill="none" xmlns="http://www.w3.org/2000/svg">
<path d="M27.9994 20V24H31.9994V26.6667H27.9994V30.6667H25.3327V26.6667H21.3327V24H25.3327V20H27.9994ZM28.01 4C28.7407 4 29.3327 4.59333 29.3327 5.324V17.3333H26.666V6.66667H5.33268V25.332L18.666 12L22.666 16V19.772L18.666 15.772L9.10202 25.3333H18.666V28H3.98868C3.63777 27.9996 3.30134 27.86 3.05333 27.6117C2.80533 27.3635 2.66602 27.0269 2.66602 26.676V5.324C2.66846 4.97384 2.80855 4.63869 3.05603 4.39096C3.30352 4.14322 3.63852 4.00279 3.98868 4H28.01ZM10.666 9.33333C11.3733 9.33333 12.0515 9.61428 12.5516 10.1144C13.0517 10.6145 13.3327 11.2928 13.3327 12C13.3327 12.7072 13.0517 13.3855 12.5516 13.8856C12.0515 14.3857 11.3733 14.6667 10.666 14.6667C9.95877 14.6667 9.2805 14.3857 8.7804 13.8856C8.2803 13.3855 7.99935 12.7072 7.99935 12C7.99935 11.2928 8.2803 10.6145 8.7804 10.1144C9.2805 9.61428 9.95877 9.33333 10.666 9.33333Z" fill="#3181F6"/>
</svg>
