<svg width="14" height="19" viewBox="0 0 14 19" fill="none" xmlns="http://www.w3.org/2000/svg">
<path d="M0.333008 18.3335C0.333008 16.5654 1.03539 14.8697 2.28563 13.6195C3.53587 12.3692 5.23156 11.6668 6.99967 11.6668C8.76778 11.6668 10.4635 12.3692 11.7137 13.6195C12.964 14.8697 13.6663 16.5654 13.6663 18.3335H11.9997C11.9997 17.0074 11.4729 15.7356 10.5352 14.798C9.59753 13.8603 8.32576 13.3335 6.99967 13.3335C5.67359 13.3335 4.40182 13.8603 3.46414 14.798C2.52646 15.7356 1.99967 17.0074 1.99967 18.3335H0.333008ZM6.99967 10.8335C4.23717 10.8335 1.99967 8.596 1.99967 5.8335C1.99967 3.071 4.23717 0.833496 6.99967 0.833496C9.76217 0.833496 11.9997 3.071 11.9997 5.8335C11.9997 8.596 9.76217 10.8335 6.99967 10.8335ZM6.99967 9.16683C8.84134 9.16683 10.333 7.67516 10.333 5.8335C10.333 3.99183 8.84134 2.50016 6.99967 2.50016C5.15801 2.50016 3.66634 3.99183 3.66634 5.8335C3.66634 7.67516 5.15801 9.16683 6.99967 9.16683Z" fill="#3181F6"/>
</svg>
