<svg width="16" height="16" viewBox="0 0 16 16" fill="none" xmlns="http://www.w3.org/2000/svg">
<path d="M2.66699 14.6667C2.66699 13.2523 3.2289 11.8957 4.22909 10.8955C5.22928 9.89532 6.58584 9.33342 8.00033 9.33342C9.41481 9.33342 10.7714 9.89532 11.7716 10.8955C12.7718 11.8957 13.3337 13.2523 13.3337 14.6667H12.0003C12.0003 13.6059 11.5789 12.5885 10.8288 11.8383C10.0786 11.0882 9.06119 10.6667 8.00033 10.6667C6.93946 10.6667 5.92204 11.0882 5.1719 11.8383C4.42175 12.5885 4.00033 13.6059 4.00033 14.6667H2.66699ZM8.00033 8.66675C5.79033 8.66675 4.00033 6.87675 4.00033 4.66675C4.00033 2.45675 5.79033 0.666748 8.00033 0.666748C10.2103 0.666748 12.0003 2.45675 12.0003 4.66675C12.0003 6.87675 10.2103 8.66675 8.00033 8.66675ZM8.00033 7.33342C9.47366 7.33342 10.667 6.14008 10.667 4.66675C10.667 3.19341 9.47366 2.00008 8.00033 2.00008C6.52699 2.00008 5.33366 3.19341 5.33366 4.66675C5.33366 6.14008 6.52699 7.33342 8.00033 7.33342Z" fill="#CCCCCC"/>
</svg>
