<svg width="14" height="19" viewBox="0 0 14 19" fill="none" xmlns="http://www.w3.org/2000/svg">
<path d="M0.333984 18.3334C0.333984 16.5653 1.03636 14.8696 2.28661 13.6193C3.53685 12.3691 5.23254 11.6667 7.00065 11.6667C8.76876 11.6667 10.4645 12.3691 11.7147 13.6193C12.9649 14.8696 13.6673 16.5653 13.6673 18.3334H12.0007C12.0007 17.0073 11.4739 15.7355 10.5362 14.7978C9.5985 13.8602 8.32673 13.3334 7.00065 13.3334C5.67457 13.3334 4.4028 13.8602 3.46512 14.7978C2.52744 15.7355 2.00065 17.0073 2.00065 18.3334H0.333984ZM7.00065 10.8334C4.23815 10.8334 2.00065 8.59587 2.00065 5.83337C2.00065 3.07087 4.23815 0.833374 7.00065 0.833374C9.76315 0.833374 12.0007 3.07087 12.0007 5.83337C12.0007 8.59587 9.76315 10.8334 7.00065 10.8334ZM7.00065 9.16671C8.84232 9.16671 10.334 7.67504 10.334 5.83337C10.334 3.99171 8.84232 2.50004 7.00065 2.50004C5.15898 2.50004 3.66732 3.99171 3.66732 5.83337C3.66732 7.67504 5.15898 9.16671 7.00065 9.16671Z" fill="#3181F6"/>
</svg>
