<svg width="20" height="20" viewBox="0 0 20 20" fill="none" xmlns="http://www.w3.org/2000/svg">
<path d="M2 18.5C2 16.7319 2.70238 15.0362 3.95262 13.786C5.20286 12.5357 6.89856 11.8333 8.66667 11.8333C10.4348 11.8333 12.1305 12.5357 13.3807 13.786C14.631 15.0362 15.3333 16.7319 15.3333 18.5H13.6667C13.6667 17.1739 13.1399 15.9021 12.2022 14.9645C11.2645 14.0268 9.99275 13.5 8.66667 13.5C7.34058 13.5 6.06881 14.0268 5.13113 14.9645C4.19345 15.9021 3.66667 17.1739 3.66667 18.5H2ZM8.66667 11C5.90417 11 3.66667 8.7625 3.66667 6C3.66667 3.2375 5.90417 1 8.66667 1C11.4292 1 13.6667 3.2375 13.6667 6C13.6667 8.7625 11.4292 11 8.66667 11ZM8.66667 9.33333C10.5083 9.33333 12 7.84167 12 6C12 4.15833 10.5083 2.66667 8.66667 2.66667C6.825 2.66667 5.33333 4.15833 5.33333 6C5.33333 7.84167 6.825 9.33333 8.66667 9.33333ZM15.57 12.4192C16.7411 12.9466 17.735 13.801 18.4322 14.8798C19.1293 15.9585 19.5001 17.2156 19.5 18.5H17.8333C17.8335 17.5366 17.5555 16.5937 17.0326 15.7847C16.5097 14.9756 15.7642 14.3347 14.8858 13.9392L15.5692 12.4192H15.57ZM14.9967 3.01083C15.8363 3.35691 16.5541 3.94461 17.0592 4.69936C17.5642 5.4541 17.8337 6.34187 17.8333 7.25C17.8337 8.39361 17.4064 9.49602 16.6355 10.3407C15.8645 11.1854 14.8056 11.7112 13.6667 11.815V10.1375C14.2841 10.0491 14.857 9.76502 15.3011 9.32705C15.7452 8.88908 16.0372 8.32027 16.1343 7.70411C16.2313 7.08796 16.1283 6.45691 15.8403 5.90363C15.5523 5.35034 15.0945 4.90395 14.5342 4.63L14.9967 3.01083Z" fill="#3181F6"/>
</svg>
