<svg width="20" height="20" viewBox="0 0 20 20" fill="none" xmlns="http://www.w3.org/2000/svg">
<path d="M9.99984 18.3332C5.39734 18.3332 1.6665 14.6023 1.6665 9.99984C1.6665 5.39734 5.39734 1.6665 9.99984 1.6665C14.6023 1.6665 18.3332 5.39734 18.3332 9.99984C18.3332 14.6023 14.6023 18.3332 9.99984 18.3332ZM8.0915 16.389C7.26935 14.6451 6.79306 12.7583 6.689 10.8332H3.38484C3.54699 12.1156 4.07811 13.3233 4.91364 14.3096C5.74918 15.2959 6.85318 16.0183 8.0915 16.389ZM8.35817 10.8332C8.484 12.8657 9.06484 14.7748 9.99984 16.4598C10.9601 14.7303 11.521 12.8077 11.6415 10.8332H8.35817ZM16.6148 10.8332H13.3107C13.2066 12.7583 12.7303 14.6451 11.9082 16.389C13.1465 16.0183 14.2505 15.2959 15.086 14.3096C15.9216 13.3233 16.4527 12.1156 16.6148 10.8332ZM3.38484 9.1665H6.689C6.79306 7.24133 7.26935 5.35458 8.0915 3.61067C6.85318 3.9814 5.74918 4.7038 4.91364 5.69008C4.07811 6.67637 3.54699 7.88409 3.38484 9.1665ZM8.359 9.1665H11.6407C11.5205 7.192 10.9598 5.26945 9.99984 3.53984C9.03957 5.26938 8.47863 7.19194 8.35817 9.1665H8.359ZM11.9082 3.61067C12.7303 5.35458 13.2066 7.24133 13.3107 9.1665H16.6148C16.4527 7.88409 15.9216 6.67637 15.086 5.69008C14.2505 4.7038 13.1465 3.9814 11.9082 3.61067Z" fill="#919FB3"/>
</svg>
