<svg width="20" height="20" viewBox="0 0 20 20" fill="none" xmlns="http://www.w3.org/2000/svg">
<path d="M9.99935 18.3332C5.39685 18.3332 1.66602 14.6023 1.66602 9.99984C1.66602 5.39734 5.39685 1.6665 9.99935 1.6665C14.6018 1.6665 18.3327 5.39734 18.3327 9.99984C18.3327 14.6023 14.6018 18.3332 9.99935 18.3332ZM8.09102 16.389C7.26886 14.6451 6.79258 12.7583 6.68852 10.8332H3.38435C3.5465 12.1156 4.07762 13.3233 4.91316 14.3096C5.74869 15.2959 6.85269 16.0183 8.09102 16.389ZM8.35768 10.8332C8.48352 12.8657 9.06435 14.7748 9.99935 16.4598C10.9596 14.7303 11.5206 12.8077 11.641 10.8332H8.35768ZM16.6143 10.8332H13.3102C13.2061 12.7583 12.7298 14.6451 11.9077 16.389C13.146 16.0183 14.25 15.2959 15.0855 14.3096C15.9211 13.3233 16.4522 12.1156 16.6143 10.8332ZM3.38435 9.1665H6.68852C6.79258 7.24133 7.26886 5.35458 8.09102 3.61067C6.85269 3.9814 5.74869 4.7038 4.91316 5.69008C4.07762 6.67637 3.5465 7.88409 3.38435 9.1665ZM8.35852 9.1665H11.6402C11.52 7.192 10.9593 5.26945 9.99935 3.53984C9.03908 5.26938 8.47815 7.19194 8.35768 9.1665H8.35852ZM11.9077 3.61067C12.7298 5.35458 13.2061 7.24133 13.3102 9.1665H16.6143C16.4522 7.88409 15.9211 6.67637 15.0855 5.69008C14.25 4.7038 13.146 3.9814 11.9077 3.61067Z" fill="#3181F6"/>
</svg>
